<svg width="48" height="48" viewBox="0 0 48 48" fill="none" xmlns="http://www.w3.org/2000/svg">
<path d="M11.9999 26.2498C12.0025 26.4475 11.9654 26.6436 11.8909 26.8268C11.8164 27.0099 11.706 27.1762 11.5662 27.316C11.4264 27.4558 11.2601 27.5662 11.0769 27.6407C10.8938 27.7152 10.6976 27.7523 10.4999 27.7498H2.24994C1.97127 27.7475 1.69846 27.6696 1.46068 27.5242C1.22289 27.3789 1.02907 27.1717 0.899938 26.9248C0.779858 26.6733 0.730384 26.3939 0.756804 26.1165C0.783225 25.8391 0.884547 25.5741 1.04994 25.3498C2.37741 23.5678 4.14877 22.165 6.18744 21.281C5.31142 20.4791 4.63837 19.4807 4.22365 18.3678C3.80894 17.255 3.66444 16.0595 3.80203 14.8799C3.93962 13.7003 4.35538 12.5702 5.01508 11.5827C5.67479 10.5952 6.55958 9.77841 7.59663 9.19966C8.63368 8.62091 9.79335 8.29672 10.9802 8.25375C12.167 8.21078 13.3471 8.45028 14.4233 8.95252C15.4995 9.45477 16.441 10.2054 17.1704 11.1426C17.8998 12.0799 18.3962 13.1769 18.6187 14.3435C18.6742 14.6474 18.6357 14.9609 18.5084 15.2423C18.3811 15.5237 18.171 15.7596 17.9062 15.9185C15.4811 17.3566 13.6367 19.599 12.6937 22.256C12.2288 23.536 11.9939 24.888 11.9999 26.2498ZM46.9499 25.3498C45.6225 23.5678 43.8511 22.165 41.8124 21.281C42.6884 20.4791 43.3615 19.4807 43.7762 18.3678C44.1909 17.255 44.3354 16.0595 44.1978 14.8799C44.0602 13.7003 43.6445 12.5702 42.9848 11.5827C42.3251 10.5952 41.4403 9.77841 40.4032 9.19966C39.3662 8.62091 38.2065 8.29672 37.0197 8.25375C35.8329 8.21078 34.6528 8.45028 33.5766 8.95252C32.5004 9.45477 31.5589 10.2054 30.8295 11.1426C30.1001 12.0799 29.6037 13.1769 29.3812 14.3435C29.3257 14.6474 29.3642 14.9609 29.4915 15.2423C29.6188 15.5237 29.8289 15.7596 30.0937 15.9185C32.5219 17.3529 34.3674 19.5966 35.3062 22.256C35.7711 23.536 36.0059 24.888 35.9999 26.2498C35.9974 26.4475 36.0345 26.6436 36.109 26.8268C36.1835 27.0099 36.2939 27.1762 36.4337 27.316C36.5735 27.4558 36.7398 27.5662 36.9229 27.6407C37.1061 27.7152 37.3023 27.7523 37.4999 27.7498H45.7499C46.0285 27.7498 46.3016 27.6722 46.5385 27.5257C46.7755 27.3793 46.967 27.1698 47.0916 26.9206C47.2162 26.6714 47.2689 26.3925 47.2439 26.1151C47.2189 25.8376 47.1171 25.5726 46.9499 25.3498ZM29.4749 33.3935C30.9678 32.2493 32.0646 30.6661 32.6113 28.8664C33.1581 27.0667 33.1272 25.141 32.5231 23.3597C31.919 21.5785 30.772 20.0313 29.2432 18.9355C27.7145 17.8397 25.8808 17.2504 23.9999 17.2504C22.119 17.2504 20.2854 17.8397 18.7566 18.9355C17.2279 20.0313 16.0809 21.5785 15.4768 23.3597C14.8727 25.141 14.8418 27.0667 15.3885 28.8664C15.9353 30.6661 17.0321 32.2493 18.5249 33.3935C15.6084 34.6883 13.244 36.9731 11.8499 39.8435C11.739 40.0716 11.6893 40.3247 11.7058 40.5778C11.7222 40.8309 11.8042 41.0754 11.9437 41.2873C12.0735 41.5046 12.2575 41.6845 12.4777 41.8094C12.6979 41.9343 12.9468 41.9999 13.1999 41.9998H34.7999C35.0531 41.9999 35.3019 41.9343 35.5221 41.8094C35.7423 41.6845 35.9264 41.5046 36.0562 41.2873C36.1957 41.0754 36.2777 40.8309 36.2941 40.5778C36.3105 40.3247 36.2609 40.0716 36.1499 39.8435C34.7559 36.9731 32.3914 34.6883 29.4749 33.3935Z" fill="#E1E1E6"/>
</svg>
