<svg width="48" height="48" viewBox="0 0 48 48" fill="none" xmlns="http://www.w3.org/2000/svg">
<path d="M43.4812 39.7498C40.6824 34.9283 36.2023 31.3095 30.9 29.5873C33.4415 28.076 35.4166 25.772 36.5217 23.0294C37.6268 20.2867 37.8009 17.2571 37.0172 14.4059C36.2335 11.5547 34.5354 9.03969 32.1837 7.24718C29.8321 5.45468 26.9569 4.48386 24 4.48386C21.0431 4.48386 18.1679 5.45468 15.8162 7.24718C13.4646 9.03969 11.7665 11.5547 10.9828 14.4059C10.1991 17.2571 10.3732 20.2867 11.4783 23.0294C12.5834 25.772 14.5585 28.076 17.1 29.5873C11.7977 31.3095 7.31762 34.9283 4.51875 39.7498C4.38133 39.9758 4.30865 40.2353 4.30865 40.4998C4.30865 40.7643 4.38133 41.0238 4.51875 41.2498C4.64695 41.4797 4.83481 41.6707 5.06251 41.8027C5.29021 41.9347 5.54932 42.0028 5.8125 41.9998H42.1875C42.4507 42.0028 42.7098 41.9347 42.9375 41.8027C43.1652 41.6707 43.353 41.4797 43.4812 41.2498C43.6187 41.0238 43.6913 40.7643 43.6913 40.4998C43.6913 40.2353 43.6187 39.9758 43.4812 39.7498Z" fill="#E1E1E6"/>
</svg>
